# xmcd CD database file
#
# Track frame offsets:
#	150
#	16852
#	31532
#	46240
#	69235
#	97560
#	121992
#	150450
#	176510
#	203165
#	225185
#	240400
#	266377
#
# Disc length: 3904 seconds
#
# Revision: 0
# Processed by: cddbd v1.5.1PL0 Copyright (c) Steve Scherf et al.
# Submitted via: CDex 1.51
#
DISCID=810f3e0d
DTITLE=Omnibus - Prestige Vol.3
DYEAR=1900
DGENRE=Jazz
TTITLE0=Concorde/M.J.Q
TTITLE1=The Queen's Fancy/M.J.Q
TTITLE2=Vendome/M.J.Q
TTITLE3=Moonray/Milt Jackson
TTITLE4=From This Moment On/Mal Waldron
TTITLE5=Splidium-Dow/Mal Waldron
TTITLE6=All of You/Kenny Burrell
TTITLE7=Prelude Blues/Red Garland
TTITLE8=But Not for Me/Red Garland
TTITLE9=Golden Earrings/Ray Bryant
TTITLE10=Angel Eyes/Ray Bryant
TTITLE11=Bass Duet/Ron Carter
TTITLE12=Yes Indeed/Ron Carter
EXTD=
EXTT0=
EXTT1=
EXTT2=
EXTT3=
EXTT4=
EXTT5=
EXTT6=
EXTT7=
EXTT8=
EXTT9=
EXTT10=
EXTT11=
EXTT12=
PLAYORDER=
